<svg viewBox="0 0 84 45" xmlns="http://www.w3.org/2000/svg"><title>logo-cisco</title><g id="Symbols" fill="none" fill-rule="evenodd"><g id="Partners/Big" transform="translate(-169 -1)" fill-rule="nonzero" fill="#049FD9"><path d="M252.47 31.806a1.806 1.806 0 0 1-3.612 0v-3.795a1.807 1.807 0 0 1 3.613 0v3.795zm-9.93 4.98a1.81 1.81 0 0 1-1.829 1.806c-.997 0-1.805-.81-1.805-1.805V28.01c0-1.001.808-1.81 1.805-1.81a1.81 1.81 0 0 1 1.828 1.81v8.776zm-9.953 6.815a1.805 1.805 0 0 1-3.61 0V24.405a1.806 1.806 0 1 1 3.61 0v19.196zm-9.955-6.814a1.805 1.805 0 0 1-3.61 0V28.01a1.806 1.806 0 0 1 3.61 0v8.776zm-9.952-4.98c0 .996-.807 1.803-1.8 1.803a1.81 1.81 0 0 1-1.81-1.804v-3.795a1.804 1.804 0 1 1 3.61 0v3.795zm-9.936 4.98a1.81 1.81 0 0 1-3.622 0V28.01a1.811 1.811 0 0 1 3.622 0v8.776zm-9.947 6.814a1.81 1.81 0 0 1-1.812 1.804 1.81 1.81 0 0 1-1.81-1.804V24.405a1.81 1.81 0 0 1 3.622 0v19.196zm-9.948-6.814a1.81 1.81 0 0 1-3.622 0V28.01a1.81 1.81 0 0 1 3.622 0v8.776zm-9.948-4.98a1.81 1.81 0 0 1-1.81 1.803 1.81 1.81 0 0 1-1.812-1.804v-3.795a1.811 1.811 0 0 1 3.622 0v3.795zM210.29 16.07c-.109.03-1.78.46-3.556.46-3.362 0-5.387-1.815-5.387-4.519 0-2.393 1.694-3.587 3.726-4.229.225-.074.557-.178.779-.251.904-.285 1.626-.708 1.626-1.44 0-.82-.834-1.35-2.649-1.35-1.594 0-3.123.456-3.445.538V1.953a21.79 21.79 0 0 1 3.937-.395c2.792 0 5.985 1.22 5.985 4.851 0 1.762-1.078 3.383-3.446 4.136l-1.006.32c-.6.19-1.673.496-1.673 1.377 0 .695.795 1.184 2.257 1.184 1.262 0 2.797-.424 2.852-.44v3.085zm30.827-7.026c0-2.103-1.611-3.805-3.773-3.805-2.164 0-3.77 1.702-3.77 3.805 0 2.099 1.606 3.801 3.77 3.801 2.162 0 3.773-1.702 3.773-3.801zm-3.773 7.482c-4.446 0-7.635-3.353-7.635-7.482 0-4.136 3.19-7.487 7.635-7.487 4.446 0 7.64 3.351 7.64 7.487 0 4.129-3.194 7.482-7.64 7.482zm-49.55-.518c-.344.102-1.61.518-3.327.518-4.44 0-7.698-3.165-7.698-7.482 0-4.658 3.597-7.487 7.698-7.487 1.63 0 2.873.386 3.326.515v3.88c-.157-.087-1.349-.767-3.064-.767-2.43 0-3.998 1.71-3.998 3.859 0 2.214 1.635 3.856 3.998 3.856 1.744 0 2.917-.696 3.064-.772v3.88zm38.075 0c-.346.102-1.614.518-3.324.518-4.446 0-7.705-3.165-7.705-7.482 0-4.658 3.602-7.487 7.705-7.487 1.62 0 2.865.386 3.324.515v3.88c-.16-.087-1.354-.767-3.07-.767-2.428 0-3.994 1.71-3.994 3.859 0 2.214 1.636 3.856 3.995 3.856 1.744 0 2.92-.696 3.069-.772v3.88zM196.455 1.816h-3.648V16.27h3.648V1.816z" id="logo-cisco" transform="matrix(1 0 0 -1 0 46.964)"/></g></g></svg>