<svg viewBox="0 0 170 23" xmlns="http://www.w3.org/2000/svg"><title>logo-viasound</title><g id="Symbols" fill="none" fill-rule="evenodd"><g id="Partners/Big" transform="translate(-335 -12)"><g id="logo-viasound" transform="translate(335 12)"><path d="M21.728.683l-8.105 21.441H8.002L0 .684h5.935l4.479 12.112c.272.735.406 1.454.463 2.116h.092a9.49 9.49 0 0 1 .515-2.173L15.958.683h5.77z" id="Fill-1" fill="#94C01F"/><path id="Fill-3" fill="#94C01F" d="M23.937 22.124h5.772V.684h-5.772z"/><path d="M36.845 1.512c-.645.201-1.215.424-1.707.668v4.356c2.41-1.44 4.97-2.16 7.684-2.16 1.472 0 2.584.331 3.334.992.751.664 1.128 1.649 1.128 2.956v.17l-6.616.827c-2.627.33-4.595 1.079-5.9 2.247-1.294 1.16-1.942 2.742-1.942 4.747 0 .976.163 1.847.487 2.613a5.407 5.407 0 0 0 1.447 1.984 6.452 6.452 0 0 0 2.257 1.262c.864.282 1.84.423 2.922.423 1.502 0 2.82-.295 3.954-.886 1.136-.592 2.093-1.484 2.872-2.675l.062-.096h.42v3.133h6.069V9.279c0-2.959-.798-5.173-2.392-6.642-1.595-1.468-4-2.202-7.214-2.202-.623 0-1.312.042-2.064.125a31.8 31.8 0 0 0-2.437.375 21.93 21.93 0 0 0-2.364.577m2.88 11.859c.651-.539 1.616-.885 2.896-1.04l4.663-.553v1.763c0 .697-.117 1.34-.351 1.926a4.692 4.692 0 0 1-1.057 1.585 4.67 4.67 0 0 1-1.614 1.07 5.402 5.402 0 0 1-1.997.355 4.925 4.925 0 0 1-1.432-.194 3.264 3.264 0 0 1-1.13-.593 2.616 2.616 0 0 1-.731-.926 2.73 2.73 0 0 1-.244-1.165c0-.935.332-1.677.998-2.228" id="Fill-5" fill="#94C01F"/><path d="M58.395 17.683c1.79 1.337 3.894 2.003 6.316 2.003 3.096 0 4.639-.973 4.639-2.92 0-.562-.17-1.067-.51-1.521-.344-.454-.802-.846-1.378-1.186-.581-.335-1.723-.879-3.43-1.625-2.098-.922-3.564-1.857-4.397-2.812-.833-.95-1.255-2.064-1.255-3.345 0-1.847.797-3.302 2.381-4.36C62.351.852 64.381.323 66.85.323c2.34 0 4.11.26 5.303.79v3.401c-1.435-.912-3.23-1.37-5.38-1.37-1.373 0-2.484.255-3.327.766-.844.505-1.266 1.2-1.266 2.088 0 .803.31 1.46.926 1.98.617.514 1.923 1.209 3.908 2.073 2.32.997 3.925 1.999 4.81 3 .884.998 1.326 2.15 1.326 3.45 0 1.942-.766 3.42-2.294 4.446-1.527 1.025-3.64 1.535-6.34 1.535-.993 0-2.1-.109-3.318-.33-1.214-.222-2.15-.52-2.803-.889v-3.581z" id="Fill-6" fill="#1D1D1B"/><path d="M120.577 13.237c0 6.166-3.065 9.246-9.206 9.246-5.883 0-8.825-2.981-8.825-8.94V.684h3.615V13.46c0 4.068 1.826 6.104 5.482 6.104 3.549 0 5.318-1.965 5.318-5.896V.683h3.616v12.554z" id="Fill-7" fill="#1D1D1B"/><path d="M145.035 22.124h-4.037L129.833 6.315c-.411-.58-.714-1.082-.905-1.507h-.087c.087.553.133 1.597.133 3.128v14.188h-3.512V.684h4.279l10.836 15.501c.509.737.853 1.252 1.023 1.536h.077c-.113-.662-.165-1.687-.165-3.071V.683h3.523v21.441z" id="Fill-8" fill="#1D1D1B"/><path d="M153.823 3.532v15.739h3.178c2.752 0 4.913-.704 6.486-2.122 1.573-1.417 2.355-3.397 2.355-5.948 0-2.5-.745-4.404-2.242-5.708-1.497-1.304-3.666-1.96-6.51-1.96h-3.267zm-3.62 18.592V.684h7.082c8.238 0 12.358 3.481 12.358 10.45 0 3.35-1.173 6.02-3.517 8.009-2.346 1.99-5.355 2.981-9.021 2.981h-6.902z" id="Fill-9" fill="#1D1D1B"/><path d="M87.278 3.114a8.19 8.19 0 1 0 0 16.38 8.19 8.19 0 0 0 0-16.38m0-3.114c6.243 0 11.304 5.061 11.304 11.304s-5.061 11.304-11.304 11.304-11.304-5.06-11.304-11.304C75.974 5.061 81.035 0 87.278 0" id="Fill-10" fill="#1D1D1B"/><path id="Fill-11" fill="#94C01F" d="M84.116 5.67l8.74 5.634-8.74 5.635z"/></g></g></g></svg>