<svg viewBox="0 0 175 29" xmlns="http://www.w3.org/2000/svg"><title>logo-eissound</title><g id="Symbols" fill="none" fill-rule="evenodd"><g id="Partners/Big" transform="translate(-846 -6)"><g id="logo-eissound" transform="translate(846 6)"><path d="M15.124 14.317c-.23-1.604-1.833-2.979-3.896-2.979-2.75 0-3.895 1.375-4.583 2.98h8.479zm5.728 12.145c-2.062 1.375-5.27 2.291-8.25 2.291C5.043 28.753 0 23.713 0 17.067 0 10.88 4.353 5.839 11.228 5.839c6.645 0 10.312 5.5 10.312 9.853 0 1.375 0 2.062-.23 2.979l-.228.23H6.416c.687 3.207 3.208 4.353 6.187 4.353 2.52 0 5.27-.687 8.02-2.75l.23.23v5.728z" id="Fill-1" fill="#8CC000"/><path id="Fill-4" fill="#8CC000" d="M31.851 6.526l.23.23v21.08l-.23.23h-5.957l-.23-.23V6.757l.23-.23z"/><path d="M51.842 13.859c-2.75-1.605-4.583-2.063-6.874-2.063-1.146 0-2.063.458-2.063 1.375 0 2.062 11 .23 11 8.25 0 3.895-3.438 7.332-8.937 7.332-2.75 0-6.187-.687-8.25-2.062v-6.233l.23-.184c2.52 1.605 5.499 2.521 8.02 2.521 1.833 0 2.52-.458 2.52-1.375 0-2.52-10.999-.687-10.999-8.249 0-3.666 3.208-7.333 8.479-7.333 3.208 0 5.27.688 7.103 1.833v5.958l-.229.23z" id="Fill-7" fill="#8CC000"/><path d="M72.126 11.383c-2.291-1.558-4.582-2.2-6.874-2.2-2.475 0-4.033 1.284-4.033 2.888 0 4.537 13.015 1.466 13.015 9.945 0 3.804-3.483 6.737-8.661 6.737-2.75 0-5.866-.642-7.975-2.016v-3.484l.23-.229c2.52 1.65 5.224 2.383 7.745 2.383 3.391 0 4.95-1.329 4.95-3.391 0-4.904-13.016-1.879-13.016-9.945 0-3.529 3.208-6.233 7.745-6.233 2.75 0 5.27.687 7.103 1.833v3.483l-.229.23z" id="Fill-9" fill="#1D1D1B"/><path d="M107.15 6.714l.186.185v10.566c0 5.005 2.41 7.414 6.302 7.414 3.893 0 6.302-2.409 6.302-7.414V6.899l.186-.185h3.337l.185.185v11.307c0 6.859-4.078 10.566-10.01 10.566-5.931 0-10.01-3.707-10.01-10.566V6.9l.186-.185h3.337z" id="Fill-11" fill="#1D1D1B"/><path id="Fill-13" fill="#1D1D1B" d="M132.334 6.714l.37.185 12.05 15.385V6.9l.185-.185h3.336l.186.185v21.132l-.186.185h-3.707l-.37-.185-12.05-15.386v15.386l-.185.185h-3.336l-.186-.185V6.899l.186-.185z"/><path d="M157.253 24.509h5.569c4.078 0 7.23-2.595 7.23-7.044s-3.152-7.044-7.23-7.044h-5.57V24.51zm5.569-17.795c6.488 0 11.492 4.263 11.492 10.75 0 6.489-5.004 10.752-11.492 10.752h-9.09l-.186-.185V6.899l.185-.185h9.09z" id="Fill-15" fill="#1D1D1B"/><path d="M92.034 6.714v3.757c2.234 1.38 3.667 3.945 3.667 7.014 0 4.63-3.255 8.112-7.608 8.112-4.354 0-7.608-3.483-7.608-8.112 0-3.07 1.433-5.634 3.667-7.014V6.714c-4.359 1.586-7.379 5.76-7.379 10.771 0 6.416 4.95 11.458 11.32 11.458s11.32-5.042 11.32-11.458c0-5.012-3.02-9.185-7.38-10.771" id="Fill-17" fill="#1D1D1B"/><path id="Fill-19" fill="#8CC000" d="M86.406 16.499h3.503V0h-3.503z"/></g></g></g></svg>