<svg viewBox="0 0 89 34" xmlns="http://www.w3.org/2000/svg"><title>logo-abb</title><g id="Symbols" fill="none" fill-rule="evenodd"><g id="Partners/Big" transform="translate(0 -6)" fill="#FF000F"><path d="M27.611 22.522L21.851 6h-4.57v16.522h10.33zm-10.33 10.153h5.563l2.383 7.166h8.542l-5.76-16.323H17.281v9.157zM16.29 6h-4.37L6.157 22.522h10.13V6zM5.76 23.518L0 39.84h8.542l2.383-7.166h5.364v-9.157H5.76zm58.598-.996h10.33V6h-10.33v16.522zm21.85 0c-1.191-1.393-2.581-2.587-4.17-3.384 1.986-1.393 3.178-3.384 3.178-5.972C85.217 9.384 82.038 6 78.066 6h-2.384v16.522H86.21zm-21.85 17.32h10.33V23.517h-10.33V39.84zm11.323 0h2.384c5.76-.399 10.13-4.978 10.13-10.95 0-1.99-.397-3.782-1.39-5.374H75.682V39.84zm-38.934-17.32h10.33V6h-10.33v16.522zm21.85 0c-1.191-1.393-2.581-2.587-4.17-3.384 1.986-1.393 3.177-3.384 3.177-5.972 0-3.782-3.178-7.166-7.15-7.166H48.07v16.522h10.528zm-21.85 17.32h10.33V23.517h-10.33V39.84zm11.323 0h2.383c5.761-.399 10.131-4.978 10.131-10.95 0-1.99-.397-3.782-1.39-5.374H48.07V39.84z" id="logo-abb"/></g></g></svg>