<svg viewBox="0 0 179 26" xmlns="http://www.w3.org/2000/svg"><title>logo-jablotron</title><g id="Symbols" fill="none" fill-rule="evenodd"><g id="Partners/Big" transform="translate(-585 -10)" fill-rule="nonzero"><g id="logo-jablotron" transform="translate(585 10)"><path d="M173.806 3.15v13.872L164.96 3.15h-6.925v22.287h5.264v-14.65l9.148 14.65h6.472V3.15h-5.113zm-36.31 11.132a6.257 6.257 0 1 1 6.278 6.279 6.192 6.192 0 0 1-6.278-6.106v-.173zm-5.35 0c0 6.399 5.186 11.586 11.585 11.586 6.398 0 11.586-5.187 11.586-11.586 0-6.398-5.188-11.585-11.586-11.585-6.399 0-11.586 5.187-11.586 11.585zm-9.925-6.58a2.718 2.718 0 0 1 2.805 2.632c.107 1.252-.756 2.61-3.366 2.61h-2.805V7.703h3.366zm3.063 17.735h6.322l-4.984-8.781a7.098 7.098 0 0 0 4.013-6.473 7.422 7.422 0 0 0-7.788-7.055h-9.472v22.309h5.48V17.69h2.503l3.926 7.746zM93.83 3.15v4.552h5.954v17.735h5.566V7.702h6.3V3.15H93.83zm-12.233-.453h.388a11.478 11.478 0 0 1 11.586 11.37v.215c0 6.399-5.187 11.586-11.586 11.586s-11.586-5.187-11.586-11.586a15.771 15.771 0 0 1 0-1.747l5.221 1.596v.151a6.257 6.257 0 1 0 6.948-6.17l-.971-5.415zm-19.59 18.187V3.15h-5.588v22.287H70.29v-4.553h-8.284zm-16.7-13.182c1.662 0 2.525.95 2.525 2.158s-1.057 2.157-2.697 2.157H41.92V7.702h3.387zm0 8.846c1.597 0 2.827.95 2.827 2.157 0 1.208-1.186 2.158-2.826 2.158h-3.452v-4.315h3.452zm-8.845 8.889h8.846c4.703 0 8.479-2.697 8.479-6.17a5.35 5.35 0 0 0-4.315-5.287 5.243 5.243 0 0 0 3.819-5.35c0-3.409-2.762-5.545-7.983-5.545H36.44l.021 22.352zM23.171 9.06l2.719 7.746h-5.394l2.675-7.746zM26.3 3.128h-6.15l-8.37 22.309h5.717l1.402-4.078h8.5l1.425 4.078h6.235l-8.76-22.309zM0 25.437c1.219.212 2.452.327 3.69.345 5.609 0 7.637-3.129 7.637-8.09V3.15H5.89v13.247c0 3.624-1.489 4.53-3.258 4.53a9.644 9.644 0 0 1-2.33-.28L0 25.437z" id="Shape" fill="#1D1D1B"/><path d="M82.135 14.412L79.136 0A14.369 14.369 0 0 0 68.09 9.924l14.045 4.488z" id="Shape" fill="#FBBA00"/></g></g></g></svg>