<svg width="38" height="48" viewBox="0 0 38 48" xmlns="http://www.w3.org/2000/svg"><title>icon-temp-1</title><g id="Page-1" fill="none" fill-rule="evenodd"><g id="Service" transform="translate(-143 -1451)" fill-rule="nonzero" fill="#85CC3D"><g id="Group-9" transform="translate(140 1362)"><g id="icon-temp-1" transform="translate(3 89)"><path d="M37 48H23a1 1 0 0 1-1-1V1a1 1 0 0 1 1-1h14a1 1 0 0 1 1 1v46a1 1 0 0 1-1 1zm-13-2h12V2H24v44z" id="Shape"/><path id="Rectangle-path" d="M23 8h5v2h-5zm0 6h5v2h-5zm0 6h5v2h-5zm0 6h5v2h-5zm0 6h5v2h-5zm0 6h5v2h-5z"/><path d="M9 46H5c-2.757 0-5-2.243-5-5V12c0-.197.059-.391.168-.555l6-9c.371-.557 1.293-.557 1.664 0l6 9c.109.164.168.358.168.555v29c0 2.757-2.243 5-5 5zM2 12.303V41c0 1.654 1.346 3 3 3h4c1.654 0 3-1.346 3-3V12.303l-5-7.5-5 7.5z" id="Shape"/><path d="M13 40H1a1 1 0 1 1 0-2h12a1 1 0 1 1 0 2zm0-4H1a1 1 0 1 1 0-2h12a1 1 0 1 1 0 2z" id="Shape"/><path d="M5 36a1 1 0 0 1-1-1V16a1 1 0 1 1 2 0v19a1 1 0 0 1-1 1zm4 0a1 1 0 0 1-1-1V16a1 1 0 1 1 2 0v19a1 1 0 0 1-1 1z" id="Shape"/><path id="Rectangle-path" d="M4 7h6v2H4z"/><path d="M4 17c-2.206 0-4-1.794-4-4a1 1 0 1 1 2 0c0 1.103.897 2 2 2s2-.897 2-2a1 1 0 1 1 2 0c0 2.206-1.794 4-4 4z" id="Shape"/><path d="M10 17c-2.206 0-4-1.794-4-4a1 1 0 1 1 2 0c0 1.103.897 2 2 2s2-.897 2-2a1 1 0 1 1 2 0c0 2.206-1.794 4-4 4z" id="Shape"/></g></g></g></g></svg>