<svg width="44" height="44" viewBox="0 0 44 44" xmlns="http://www.w3.org/2000/svg"><title>icon-temp-3</title><g id="Page-1" fill="none" fill-rule="evenodd"><g id="Service" transform="translate(-864 -1453)" fill-rule="nonzero" fill="#008040"><g id="Group-9" transform="translate(140 1362)"><g id="icon-temp-3" transform="translate(723 91)"><path d="M10.003 44c-1.217 0-2.4-.239-3.517-.712a1 1 0 0 1-.318-1.627l3.535-3.534v-2.829H6.875L3.34 38.832a.992.992 0 0 1-.898.274.996.996 0 0 1-.729-.592 8.964 8.964 0 0 1 1.92-9.874 8.928 8.928 0 0 1 6.357-2.633c.987 0 1.952.157 2.876.469l14.603-14.603a8.96 8.96 0 0 1 2.163-9.234A8.936 8.936 0 0 1 35.99.007c1.217 0 2.4.239 3.517.712a1 1 0 0 1 .318 1.627L36.29 5.882v2.829h2.829l3.534-3.535a.99.99 0 0 1 .898-.274c.326.063.6.285.729.592a8.964 8.964 0 0 1-1.92 9.874A8.932 8.932 0 0 1 36.003 18a8.958 8.958 0 0 1-2.876-.469L18.524 32.134a8.96 8.96 0 0 1-2.164 9.234A8.932 8.932 0 0 1 10.003 44zm-1.237-2.108a7.06 7.06 0 0 0 1.237.108 6.947 6.947 0 0 0 4.943-2.046 6.972 6.972 0 0 0 1.493-7.681 1 1 0 0 1 .214-1.097L32.169 15.66a.999.999 0 0 1 1.097-.214c.869.367 1.79.554 2.737.554a6.944 6.944 0 0 0 4.943-2.047 6.965 6.965 0 0 0 1.94-6.183l-2.647 2.647a1 1 0 0 1-.707.293H35.29a1 1 0 0 1-1-1V5.468c0-.266.105-.52.293-.707l2.646-2.645a7.079 7.079 0 0 0-1.238-.108 6.95 6.95 0 0 0-4.944 2.046 6.974 6.974 0 0 0-1.492 7.681 1 1 0 0 1-.214 1.097L13.824 28.348a1 1 0 0 1-1.097.214 6.999 6.999 0 0 0-2.737-.554 6.942 6.942 0 0 0-4.943 2.047 6.965 6.965 0 0 0-1.94 6.183l2.647-2.647a1 1 0 0 1 .707-.293h4.243a1 1 0 0 1 1 1v4.243c0 .266-.105.52-.293.707l-2.645 2.644zM41 44a3.975 3.975 0 0 1-2.829-1.172l-9.192-9.193a.999.999 0 0 1 0-1.414l4.242-4.242a.999.999 0 0 1 1.414 0l9.193 9.193A3.971 3.971 0 0 1 45 40a3.976 3.976 0 0 1-1.172 2.829A3.973 3.973 0 0 1 41 44zm-9.899-11.072l8.485 8.486c.755.755 2.072.756 2.828 0 .378-.378.586-.88.586-1.414 0-.534-.208-1.037-.585-1.414L33.929 30.1l-2.828 2.828z" id="Shape"/><path id="Rectangle-path" transform="rotate(45 14.776 13.776)" d="M6.708 12.776h16.137v2H6.708z"/><path d="M27.564 36.05a.999.999 0 0 1-.707-1.707l8.485-8.485a.999.999 0 1 1 1.414 1.414l-8.485 8.485a.997.997 0 0 1-.707.293zM7.657 10.485a.997.997 0 0 1-.707-.293L1.293 4.535a.996.996 0 0 1 0-1.414L4.121.293a.999.999 0 0 1 1.414 0l5.657 5.657a.997.997 0 0 1 0 1.414l-2.828 2.828a.993.993 0 0 1-.707.293zM3.414 3.828l4.243 4.243 1.414-1.414-4.243-4.243-1.414 1.414z" id="Shape"/><path id="Rectangle-path" transform="rotate(45 28.396 27.394)" d="M23.205 26.394h10.381v2H23.205z"/></g></g></g></g></svg>