<svg width="48" height="38" viewBox="0 0 48 38" xmlns="http://www.w3.org/2000/svg"><title>icon-temp-2</title><g id="Page-1" fill="none" fill-rule="evenodd"><g id="Service" transform="translate(-500 -1456)" fill-rule="nonzero" fill="#36B336"><g id="Group-9" transform="translate(140 1362)"><g id="Group-8" transform="translate(355 94)"><g id="icon-temp-2" transform="translate(5)"><path d="M41 38c-2.757 0-5-2.243-5-5s2.243-5 5-5 5 2.243 5 5-2.243 5-5 5zm0-8c-1.654 0-3 1.346-3 3s1.346 3 3 3 3-1.346 3-3-1.346-3-3-3zm-28 8H9a1 1 0 0 1-1-1V3c0-1.654 1.346-3 3-3s3 1.346 3 3v34a1 1 0 0 1-1 1zm-3-2h2V3a1 1 0 0 0-2 0v33zm17 2c-3.859 0-7-3.141-7-7s3.141-7 7-7 7 3.141 7 7-3.141 7-7 7zm0-12c-2.757 0-5 2.243-5 5s2.243 5 5 5 5-2.243 5-5-2.243-5-5-5zm9.001-5a1 1 0 0 1-.971-1.242l2-8a1 1 0 0 1 1.94.484l-2 8a1 1 0 0 1-.969.758zM27 19a.997.997 0 0 1-.707-.293l-2-2a.999.999 0 1 1 1.414-1.414l2 2A.999.999 0 0 1 27 19z" id="Shape"/><path d="M17 27a.999.999 0 0 1-.707-1.707l9-9a.999.999 0 1 1 1.414 1.414l-9 9A.997.997 0 0 1 17 27zm10-1a.999.999 0 0 1-.707-1.707l5-5A.996.996 0 0 1 32 19h11a1 1 0 1 1 0 2H32.414l-4.707 4.707A.997.997 0 0 1 27 26zM13 38H1a1 1 0 1 1 0-2h12a1 1 0 1 1 0 2zM9 28H3a1 1 0 1 1 0-2h6a1 1 0 1 1 0 2z" id="Shape"/><path id="Rectangle-path" d="M32.197 33h4.93v2h-4.93z"/><path d="M47 35h-2.127v-2H46v-9.5l-3.6-2.7a1 1 0 0 1-.4-.8V9c0-1.654-1.346-3-3-3h-4c-9.374 0-17 7.626-17 17v10h3.803v2H17a1 1 0 0 1-1-1V23c0-10.477 8.523-19 19-19h4c2.757 0 5 2.243 5 5v10.5l3.6 2.7c.252.188.4.485.4.8v11a1 1 0 0 1-1 1z" id="Shape"/></g></g></g></g></g></svg>