<?xml version="1.0" encoding="UTF-8"?>
<svg width="48px" height="38px" viewBox="0 0 48 38" version="1.1" xmlns="http://www.w3.org/2000/svg" xmlns:xlink="http://www.w3.org/1999/xlink">
    <!-- Generator: Sketch 45.2 (43514) - http://www.bohemiancoding.com/sketch -->
    <title>icon-temp-2</title>
    <desc>Created with Sketch.</desc>
    <defs></defs>
    <g id="Page-1" stroke="none" stroke-width="1" fill="none" fill-rule="evenodd">
        <g id="Service" transform="translate(-500.000000, -1456.000000)" fill-rule="nonzero" fill="#36B336">
            <g id="Group-9" transform="translate(140.000000, 1362.000000)">
                <g id="Group-8" transform="translate(355.000000, 94.000000)">
                    <g id="icon-temp-2" transform="translate(5.000000, 0.000000)">
                        <path d="M41,38 C38.243,38 36,35.757 36,33 C36,30.243 38.243,28 41,28 C43.757,28 46,30.243 46,33 C46,35.757 43.757,38 41,38 Z M41,30 C39.346,30 38,31.346 38,33 C38,34.654 39.346,36 41,36 C42.654,36 44,34.654 44,33 C44,31.346 42.654,30 41,30 Z" id="Shape"></path>
                        <path d="M13,38 L9,38 C8.447,38 8,37.553 8,37 L8,3 C8,1.346 9.346,0 11,0 C12.654,0 14,1.346 14,3 L14,37 C14,37.553 13.553,38 13,38 Z M10,36 L12,36 L12,3 C12,2.448 11.552,2 11,2 C10.448,2 10,2.448 10,3 L10,36 Z" id="Shape"></path>
                        <path d="M27,38 C23.141,38 20,34.859 20,31 C20,27.141 23.141,24 27,24 C30.859,24 34,27.141 34,31 C34,34.859 30.859,38 27,38 Z M27,26 C24.243,26 22,28.243 22,31 C22,33.757 24.243,36 27,36 C29.757,36 32,33.757 32,31 C32,28.243 29.757,26 27,26 Z" id="Shape"></path>
                        <path d="M36.001,21 C35.921,21 35.839,20.99 35.758,20.97 C35.222,20.836 34.896,20.293 35.03,19.758 L37.03,11.758 C37.164,11.221 37.706,10.893 38.242,11.03 C38.778,11.164 39.104,11.707 38.97,12.242 L36.97,20.242 C36.856,20.697 36.449,21 36.001,21 Z" id="Shape"></path>
                        <path d="M27,19 C26.744,19 26.488,18.902 26.293,18.707 L24.293,16.707 C23.902,16.316 23.902,15.684 24.293,15.293 C24.684,14.902 25.316,14.902 25.707,15.293 L27.707,17.293 C28.098,17.684 28.098,18.316 27.707,18.707 C27.512,18.902 27.256,19 27,19 Z" id="Shape"></path>
                        <path d="M17,27 C16.744,27 16.488,26.902 16.293,26.707 C15.902,26.316 15.902,25.684 16.293,25.293 L25.293,16.293 C25.684,15.902 26.316,15.902 26.707,16.293 C27.098,16.684 27.098,17.316 26.707,17.707 L17.707,26.707 C17.512,26.902 17.256,27 17,27 Z" id="Shape"></path>
                        <path d="M27,26 C26.744,26 26.488,25.902 26.293,25.707 C25.902,25.316 25.902,24.684 26.293,24.293 L31.293,19.293 C31.48,19.105 31.734,19 32,19 L43,19 C43.553,19 44,19.447 44,20 C44,20.553 43.553,21 43,21 L32.414,21 L27.707,25.707 C27.512,25.902 27.256,26 27,26 Z" id="Shape"></path>
                        <path d="M13,38 L1,38 C0.447,38 0,37.553 0,37 C0,36.447 0.447,36 1,36 L13,36 C13.553,36 14,36.447 14,37 C14,37.553 13.553,38 13,38 Z" id="Shape"></path>
                        <path d="M9,28 L3,28 C2.447,28 2,27.553 2,27 C2,26.447 2.447,26 3,26 L9,26 C9.553,26 10,26.447 10,27 C10,27.553 9.553,28 9,28 Z" id="Shape"></path>
                        <rect id="Rectangle-path" x="32.197" y="33" width="4.93" height="2"></rect>
                        <path d="M47,35 L44.873,35 L44.873,33 L46,33 L46,23.5 L42.4,20.8 C42.148,20.611 42,20.314 42,20 L42,9 C42,7.346 40.654,6 39,6 L35,6 C25.626,6 18,13.626 18,23 L18,33 L21.803,33 L21.803,35 L17,35 C16.447,35 16,34.553 16,34 L16,23 C16,12.523 24.523,4 35,4 L39,4 C41.757,4 44,6.243 44,9 L44,19.5 L47.6,22.2 C47.852,22.388 48,22.685 48,23 L48,34 C48,34.553 47.553,35 47,35 Z" id="Shape"></path>
                    </g>
                </g>
            </g>
        </g>
    </g>
</svg>