<?xml version="1.0" encoding="UTF-8"?>
<svg width="44px" height="44px" viewBox="0 0 44 44" version="1.1" xmlns="http://www.w3.org/2000/svg" xmlns:xlink="http://www.w3.org/1999/xlink">
    <!-- Generator: Sketch 45.2 (43514) - http://www.bohemiancoding.com/sketch -->
    <title>icon-temp-3</title>
    <desc>Created with Sketch.</desc>
    <defs></defs>
    <g id="Page-1" stroke="none" stroke-width="1" fill="none" fill-rule="evenodd">
        <g id="Service" transform="translate(-864.000000, -1453.000000)" fill-rule="nonzero" fill="#008040">
            <g id="Group-9" transform="translate(140.000000, 1362.000000)">
                <g id="icon-temp-3" transform="translate(723.000000, 91.000000)">
                    <path d="M10.003,44 L10.003,44 C8.786,44 7.603,43.761 6.486,43.288 C6.179,43.158 5.958,42.885 5.894,42.559 C5.83,42.233 5.933,41.896 6.168,41.661 L9.703,38.127 L9.703,35.298 L6.875,35.298 L3.34,38.832 C3.105,39.067 2.77,39.172 2.442,39.106 C2.116,39.043 1.842,38.821 1.713,38.514 C0.276,35.118 1.03,31.243 3.633,28.64 C5.33,26.942 7.588,26.007 9.99,26.007 C10.977,26.007 11.942,26.164 12.866,26.476 L27.469,11.873 C26.377,8.64 27.191,5.08 29.632,2.639 C31.33,0.942 33.588,0.007 35.99,0.007 C37.207,0.007 38.39,0.246 39.507,0.719 C39.814,0.849 40.035,1.122 40.099,1.448 C40.163,1.774 40.06,2.111 39.825,2.346 L36.29,5.882 L36.29,8.711 L39.119,8.711 L42.653,5.176 C42.888,4.941 43.221,4.836 43.551,4.902 C43.877,4.965 44.151,5.187 44.28,5.494 C45.717,8.89 44.963,12.765 42.36,15.368 C40.663,17.065 38.405,18 36.003,18 C35.016,18 34.051,17.843 33.127,17.531 L18.524,32.134 C19.616,35.367 18.801,38.927 16.36,41.368 C14.663,43.065 12.405,44 10.003,44 Z M8.766,41.892 C9.171,41.964 9.584,42 10.003,42 C11.871,42 13.626,41.273 14.946,39.954 C16.971,37.93 17.557,34.914 16.439,32.273 C16.28,31.898 16.365,31.464 16.653,31.176 L32.169,15.66 C32.458,15.372 32.893,15.286 33.266,15.446 C34.135,15.813 35.056,16 36.003,16 C37.871,16 39.626,15.273 40.946,13.953 C42.595,12.304 43.29,9.997 42.886,7.77 L40.239,10.417 C40.051,10.605 39.797,10.71 39.532,10.71 L35.29,10.71 C34.738,10.71 34.29,10.263 34.29,9.71 L34.29,5.468 C34.29,5.202 34.395,4.948 34.583,4.761 L37.229,2.116 C36.823,2.044 36.41,2.008 35.991,2.008 C34.123,2.008 32.367,2.735 31.047,4.054 C29.023,6.079 28.437,9.094 29.555,11.735 C29.714,12.11 29.629,12.544 29.341,12.832 L13.824,28.348 C13.536,28.636 13.101,28.721 12.727,28.562 C11.858,28.195 10.937,28.008 9.99,28.008 C8.122,28.008 6.366,28.735 5.047,30.055 C3.398,31.704 2.703,34.011 3.107,36.238 L5.754,33.591 C5.942,33.403 6.196,33.298 6.461,33.298 L10.704,33.298 C11.256,33.298 11.704,33.745 11.704,34.298 L11.704,38.541 C11.704,38.807 11.599,39.061 11.411,39.248 L8.766,41.892 Z" id="Shape"></path>
                    <path d="M41,44 C39.932,44 38.927,43.584 38.171,42.828 L28.979,33.635 C28.588,33.244 28.588,32.612 28.979,32.221 L33.221,27.979 C33.612,27.588 34.244,27.588 34.635,27.979 L43.828,37.172 C44.584,37.927 45,38.932 45,40 C45,41.069 44.583,42.074 43.828,42.829 C43.073,43.584 42.069,44 41,44 Z M31.101,32.928 L39.586,41.414 C40.341,42.169 41.658,42.17 42.414,41.414 C42.792,41.036 43,40.534 43,40 C43,39.466 42.792,38.963 42.415,38.586 L33.929,30.1 L31.101,32.928 Z" id="Shape"></path>
                    <rect id="Rectangle-path" transform="translate(14.776354, 13.775773) rotate(45.000000) translate(-14.776354, -13.775773) " x="6.70793093" y="12.7757823" width="16.1368452" height="1.99998082"></rect>
                    <path d="M27.564,36.05 C27.308,36.05 27.052,35.952 26.857,35.757 C26.466,35.366 26.466,34.734 26.857,34.343 L35.342,25.858 C35.733,25.467 36.365,25.467 36.756,25.858 C37.147,26.249 37.147,26.881 36.756,27.272 L28.271,35.757 C28.076,35.952 27.82,36.05 27.564,36.05 Z" id="Shape"></path>
                    <path d="M7.657,10.485 C7.401,10.485 7.145,10.387 6.95,10.192 L1.293,4.535 C1.105,4.348 1,4.094 1,3.828 C1,3.562 1.105,3.308 1.293,3.121 L4.121,0.293 C4.512,-0.098 5.144,-0.098 5.535,0.293 L11.192,5.95 C11.38,6.138 11.485,6.391 11.485,6.657 C11.485,6.923 11.38,7.177 11.192,7.364 L8.364,10.192 C8.169,10.388 7.913,10.485 7.657,10.485 Z M3.414,3.828 L7.657,8.071 L9.071,6.657 L4.828,2.414 L3.414,3.828 Z" id="Shape"></path>
                    <rect id="Rectangle-path" transform="translate(28.395854, 27.393748) rotate(45.000000) translate(-28.395854, -27.393748) " x="23.2054033" y="26.3937579" width="10.3809004" height="1.99998082"></rect>
                </g>
            </g>
        </g>
    </g>
</svg>