<?xml version="1.0" encoding="UTF-8"?>
<svg viewBox="0 0 89 34" version="1.1" xmlns="http://www.w3.org/2000/svg" xmlns:xlink="http://www.w3.org/1999/xlink">
    <!-- Generator: Sketch 45.2 (43514) - http://www.bohemiancoding.com/sketch -->
    <title>logo-abb</title>
    <desc>Created with Sketch.</desc>
    <defs></defs>
    <g id="Symbols" stroke="none" stroke-width="1" fill="none" fill-rule="evenodd">
        <g id="Partners/Big" transform="translate(0.000000, -6.000000)" fill="#FF000F">
            <path d="M27.61102,22.52246 L21.85045,6.00006 L17.28172,6.00006 L17.28172,22.52246 L27.61102,22.52246 L27.61102,22.52246 Z M17.28172,32.67477 L22.84365,32.67477 L25.22733,39.84111 L33.76887,39.84111 L28.0083,23.51778 L17.28172,23.51778 L17.28172,32.67477 L17.28172,32.67477 Z M16.28852,6.00006 L11.91843,6.00006 L6.15786,22.52246 L16.28852,22.52246 L16.28852,6.00006 Z M5.76058,23.51778 L0,39.84111 L8.54154,39.84111 L10.92523,32.67477 L16.28852,32.67477 L16.28852,23.51778 L5.76058,23.51778 L5.76058,23.51778 Z M64.35947,22.52242 L74.68877,22.52242 L74.68877,6.00002 L64.35947,6.00002 L64.35947,22.52242 Z M86.20969,22.5224 C85.01785,21.12894 83.62756,19.93455 82.03824,19.13829 C84.02485,17.74484 85.21669,15.75419 85.21669,13.16634 C85.21669,9.38411 82.03824,6 78.06563,6 L75.68195,6 L75.68195,22.5224 L86.20969,22.5224 L86.20969,22.5224 Z M64.35947,39.84107 L74.68877,39.84107 L74.68877,23.51774 L64.35947,23.51774 L64.35947,39.84107 Z M75.68195,39.84111 L78.06563,39.84111 C83.82601,39.44298 88.19629,34.86449 88.19629,28.89254 C88.19629,26.90189 87.79901,25.1103 86.80561,23.51778 L75.68195,23.51778 L75.68195,39.84111 Z M36.74845,22.52242 L47.07775,22.52242 L47.07775,6.00002 L36.74845,6.00002 L36.74845,22.52242 L36.74845,22.52242 Z M58.59888,22.5224 C57.40703,21.12894 56.01655,19.93455 54.42743,19.13829 C56.41363,17.74484 57.60548,15.75419 57.60548,13.16634 C57.60548,9.38411 54.42743,6 50.45442,6 L48.07074,6 L48.07074,22.5224 L58.59888,22.5224 L58.59888,22.5224 Z M36.74845,39.84107 L47.07775,39.84107 L47.07775,23.51774 L36.74845,23.51774 L36.74845,39.84107 Z M48.07074,39.84111 L50.45442,39.84111 C56.21519,39.44298 60.58508,34.86449 60.58508,28.89254 C60.58508,26.90189 60.188,25.1103 59.1948,23.51778 L48.07074,23.51778 L48.07074,39.84111 Z" id="logo-abb"></path>
        </g>
    </g>
</svg>
