<?xml version="1.0" encoding="UTF-8"?>
<svg viewBox="0 0 175 29" version="1.1" xmlns="http://www.w3.org/2000/svg" xmlns:xlink="http://www.w3.org/1999/xlink">
    <!-- Generator: Sketch 45.2 (43514) - http://www.bohemiancoding.com/sketch -->
    <title>logo-eissound</title>
    <desc>Created with Sketch.</desc>
    <defs></defs>
    <g id="Symbols" stroke="none" stroke-width="1" fill="none" fill-rule="evenodd">
        <g id="Partners/Big" transform="translate(-846.000000, -6.000000)">
            <g id="logo-eissound" transform="translate(846.000000, 6.000000)">
                <path d="M15.1235718,14.3171055 C14.8944206,12.7133389 13.290654,11.3384316 11.2280011,11.3384316 C8.47818646,11.3384316 7.33272227,12.7133389 6.64526861,14.3171055 L15.1235718,14.3171055 Z M20.8523523,26.4618282 C18.7902833,27.8367356 15.5818743,28.7533404 12.6029084,28.7533404 C5.04121007,28.7533404 -0.000116764953,23.7123055 -0.000116764953,17.0669201 C-0.000116764953,10.8801291 4.3534645,5.83880228 11.2280011,5.83880228 C17.8733865,5.83880228 21.5395141,11.3384316 21.5395141,15.6920128 C21.5395141,17.0669201 21.5395141,17.7543738 21.3106548,18.6709787 L21.0815036,18.9001299 L6.41611739,18.9001299 C7.10327914,22.1079551 9.62394256,23.2540031 12.6029084,23.2540031 C15.1235718,23.2540031 17.8733865,22.5665494 20.6232011,20.5041884 L20.8523523,20.7333397 L20.8523523,26.4618282 Z" id="Fill-1" fill="#8CC000"></path>
                <polygon id="Fill-4" fill="#8CC000" points="31.8512314 6.52610998 32.0803826 6.7552612 32.0803826 27.8368815 31.8512314 28.0660327 25.8935916 28.0660327 25.6644404 27.8368815 25.6644404 6.7552612 25.8935916 6.52610998"></polygon>
                <path d="M51.8421795,13.8585403 C49.0923649,12.2544818 47.2591551,11.7961794 44.9676429,11.7961794 C43.8218868,11.7961794 42.9052819,12.2544818 42.9052819,13.1710867 C42.9052819,15.2334477 53.9042486,13.4002379 53.9042486,21.4202387 C53.9042486,25.3158094 50.4672722,28.7527858 44.9676429,28.7527858 C42.2178283,28.7527858 38.7808519,28.0656241 36.718199,26.6907167 L36.718199,20.4578036 L36.9476421,20.2744826 C39.4680136,21.878833 42.4469795,22.795146 44.9676429,22.795146 C46.8008527,22.795146 47.4883063,22.3368436 47.4883063,21.4202387 C47.4883063,18.8998672 36.4890478,20.7330769 36.4890478,13.1710867 C36.4890478,9.50466716 39.6974568,5.83824764 44.9676429,5.83824764 C48.17576,5.83824764 50.238121,6.5257013 52.0713307,7.6714574 L52.0713307,13.6293891 L51.8421795,13.8585403 Z" id="Fill-7" fill="#8CC000"></path>
                <path d="M72.1262952,11.3834153 C69.834783,9.82518696 67.5435627,9.18385545 65.2517586,9.18385545 C62.7772173,9.18385545 61.218989,10.4668104 61.218989,12.0708689 C61.218989,16.6080631 74.2344864,13.5374367 74.2344864,22.0160319 C74.2344864,25.8196502 70.7513879,28.7527858 65.5728622,28.7527858 C62.8230476,28.7527858 59.706591,28.1114543 57.5981079,26.736547 L57.5981079,23.2534484 L57.827551,23.0242972 C60.3479225,24.6738941 63.0521988,25.4074699 65.5728622,25.4074699 C68.9640084,25.4074699 70.5222367,24.0781009 70.5222367,22.0160319 C70.5222367,17.1121958 57.5067393,20.1369919 57.5067393,12.0708689 C57.5067393,8.54223204 60.7145644,5.83824764 65.2517586,5.83824764 C68.0015732,5.83824764 70.5222367,6.52540939 72.3554464,7.67116549 L72.3554464,11.154264 L72.1262952,11.3834153 Z" id="Fill-9" fill="#1D1D1B"></path>
                <path d="M107.150527,6.71398479 L107.335891,6.89934915 L107.335891,17.4648259 C107.335891,22.4699556 109.745628,24.8794004 113.638279,24.8794004 C117.530931,24.8794004 119.940376,22.4699556 119.940376,17.4648259 L119.940376,6.89934915 L120.126032,6.71398479 L123.462591,6.71398479 L123.647955,6.89934915 L123.647955,18.2062834 C123.647955,25.0647648 119.569939,28.772052 113.638279,28.772052 C107.70662,28.772052 103.628896,25.0647648 103.628896,18.2062834 L103.628896,6.89934915 L103.813968,6.71398479 L107.150527,6.71398479 Z" id="Fill-11" fill="#1D1D1B"></path>
                <polygon id="Fill-13" fill="#1D1D1B" points="132.3341 6.71398479 132.704828 6.89934915 144.75322 22.2842993 144.75322 6.89934915 144.938876 6.71398479 148.275143 6.71398479 148.460507 6.89934915 148.460507 28.0305946 148.275143 28.2159589 144.567856 28.2159589 144.197419 28.0305946 132.148443 12.6453525 132.148443 28.0305946 131.963079 28.2159589 128.626812 28.2159589 128.441448 28.0305946 128.441448 6.89934915 128.626812 6.71398479"></polygon>
                <path d="M157.252908,24.5086717 L162.821898,24.5086717 C166.899914,24.5086717 170.051108,21.9135706 170.051108,17.4648259 C170.051108,13.0163731 166.899914,10.421272 162.821898,10.421272 L157.252908,10.421272 L157.252908,24.5086717 Z M162.821898,6.71398479 C169.30965,6.71398479 174.314488,10.9773651 174.314488,17.4648259 C174.314488,23.9528705 169.30965,28.2159589 162.821898,28.2159589 L153.731277,28.2159589 L153.545913,28.0305946 L153.545913,6.89934915 L153.731277,6.71398479 L162.821898,6.71398479 Z" id="Fill-15" fill="#1D1D1B"></path>
                <path d="M92.033552,6.71398479 L92.033552,10.4706052 C94.2678494,11.850767 95.7005553,14.4155092 95.7005553,17.4852598 C95.7005553,22.1141144 92.4463161,25.597213 88.0927348,25.597213 C83.7388617,25.597213 80.4849143,22.1141144 80.4849143,17.4852598 C80.4849143,14.4152173 81.9176203,11.850767 84.1519177,10.4706052 L84.1519177,6.71398479 C79.793082,8.30023667 76.7729565,12.4731242 76.7729565,17.4852598 C76.7729565,23.9014939 81.7223309,28.9425289 88.0927348,28.9425289 C94.4628468,28.9425289 99.4125132,23.9014939 99.4125132,17.4852598 C99.4125132,12.4731242 96.3920958,8.30023667 92.033552,6.71398479" id="Fill-17" fill="#1D1D1B"></path>
                <polygon id="Fill-19" fill="#8CC000" points="86.4060651 16.4985959 89.9090137 16.4985959 89.9090137 0 86.4060651 0"></polygon>
            </g>
        </g>
    </g>
</svg>
