<?xml version="1.0" encoding="UTF-8"?>
<svg viewBox="0 0 84 45" version="1.1" xmlns="http://www.w3.org/2000/svg" xmlns:xlink="http://www.w3.org/1999/xlink">
    <!-- Generator: Sketch 45.2 (43514) - http://www.bohemiancoding.com/sketch -->
    <title>logo-cisco</title>
    <desc>Created with Sketch.</desc>
    <defs></defs>
    <g id="Symbols" stroke="none" stroke-width="1" fill="none" fill-rule="evenodd">
        <g id="Partners/Big" transform="translate(-169.000000, -1.000000)" fill-rule="nonzero" fill="#049FD9">
            <path d="M252.470831,31.806206 C252.470831,32.8025803 251.660482,33.6102327 250.665648,33.6102327 C249.668119,33.6102327 248.85777,32.8025803 248.85777,31.806206 L248.85777,28.0113566 C248.85777,27.0095903 249.668119,26.2015527 250.665648,26.2015527 C251.660482,26.2015527 252.470831,27.0095903 252.470831,28.0113566 L252.470831,31.806206 Z M242.539055,36.7869218 C242.539055,37.7829109 241.731018,38.5921039 240.71115,38.5921039 C239.71362,38.5921039 238.905582,37.7829109 238.905582,36.7869218 L238.905582,28.0113566 C238.905582,27.0095903 239.71362,26.2015527 240.71115,26.2015527 C241.731018,26.2015527 242.539055,27.0095903 242.539055,28.0113566 L242.539055,36.7869218 Z M232.586867,43.6009354 C232.586867,44.5973096 231.77883,45.4053472 230.781685,45.4053472 C229.784155,45.4053472 228.976118,44.5973096 228.976118,43.6009354 L228.976118,24.405229 C228.976118,23.4030776 229.784155,22.5954252 230.781685,22.5954252 C231.77883,22.5954252 232.586867,23.4030776 232.586867,24.405229 L232.586867,43.6009354 Z M222.632368,36.7869218 C222.632368,37.7829109 221.824716,38.5921039 220.827186,38.5921039 C219.831967,38.5921039 219.021619,37.7829109 219.021619,36.7869218 L219.021619,28.0113566 C219.021619,27.0095903 219.831967,26.2015527 220.827186,26.2015527 C221.824716,26.2015527 222.632368,27.0095903 222.632368,28.0113566 L222.632368,36.7869218 Z M212.68018,31.806206 C212.68018,32.8025803 211.872528,33.6102327 210.880775,33.6102327 C209.883246,33.6102327 209.069816,32.8025803 209.069816,31.806206 L209.069816,28.0113566 C209.069816,27.0095903 209.883246,26.2015527 210.880775,26.2015527 C211.872528,26.2015527 212.68018,27.0095903 212.68018,28.0113566 L212.68018,31.806206 Z M202.744168,36.7869218 C202.744168,37.7829109 201.930354,38.5921039 200.933209,38.5921039 C199.935679,38.5921039 199.121865,37.7829109 199.121865,36.7869218 L199.121865,28.0113566 C199.121865,27.0095903 199.935679,26.2015527 200.933209,26.2015527 C201.930354,26.2015527 202.744168,27.0095903 202.744168,28.0113566 L202.744168,36.7869218 Z M192.796602,43.6009354 C192.796602,44.5973096 191.982787,45.4053472 190.985258,45.4053472 C189.988113,45.4053472 189.174298,44.5973096 189.174298,43.6009354 L189.174298,24.405229 C189.174298,23.4030776 189.988113,22.5954252 190.985258,22.5954252 C191.982787,22.5954252 192.796602,23.4030776 192.796602,24.405229 L192.796602,43.6009354 Z M182.848651,36.7869218 C182.848651,37.7829109 182.035221,38.5921039 181.037691,38.5921039 C180.040162,38.5921039 179.226732,37.7829109 179.226732,36.7869218 L179.226732,28.0113566 C179.226732,27.0095903 180.040162,26.2015527 181.037691,26.2015527 C182.035221,26.2015527 182.848651,27.0095903 182.848651,28.0113566 L182.848651,36.7869218 Z M172.901084,31.806206 C172.901084,32.8025803 172.087655,33.6102327 171.090125,33.6102327 C170.093751,33.6102327 169.279166,32.8025803 169.279166,31.806206 L169.279166,28.0113566 C169.279166,27.0095903 170.093751,26.2015527 171.090125,26.2015527 C172.087655,26.2015527 172.901084,27.0095903 172.901084,28.0113566 L172.901084,31.806206 Z M210.289575,16.0710418 C210.180964,16.1006981 208.509813,16.5316771 206.733902,16.5316771 C203.371572,16.5316771 201.347242,14.7160961 201.347242,12.012367 C201.347242,9.61906602 203.040731,8.42549672 205.07315,7.78345734 C205.298461,7.70912405 205.630457,7.60513447 205.851531,7.53195662 C206.75624,7.24733328 207.47839,6.82444232 207.47839,6.09189349 C207.47839,5.27268668 206.643778,4.74233982 204.829352,4.74233982 C203.234845,4.74233982 201.706198,5.19835339 201.384216,5.27961932 L201.384216,1.95310816 C201.563694,1.91497865 203.38043,1.5583329 205.321184,1.5583329 C208.112727,1.5583329 211.305977,2.77809217 211.305977,6.40925429 C211.305977,8.17052967 210.227567,9.79199685 207.860071,10.5445733 L206.853682,10.8650153 C206.253239,11.0545074 205.181376,11.3614692 205.181376,12.2415292 C205.181376,12.9367188 205.975548,13.4262401 207.43795,13.4262401 C208.69969,13.4262401 210.23527,13.0021937 210.289575,12.9852473 L210.289575,16.0710418 L210.289575,16.0710418 Z M241.117094,9.04481245 C241.117094,6.94152688 239.506026,5.23994922 237.344198,5.23994922 C235.180059,5.23994922 233.573228,6.94152688 233.573228,9.04481245 C233.573228,11.1438614 235.180059,12.8462094 237.344198,12.8462094 C239.506026,12.8462094 241.117094,11.1438614 241.117094,9.04481245 L241.117094,9.04481245 Z M237.344198,16.5270554 C232.898066,16.5270554 229.709437,13.173584 229.709437,9.04481245 C229.709437,4.90949344 232.898066,1.5583329 237.344198,1.5583329 C241.789945,1.5583329 244.983196,4.90949344 244.983196,9.04481245 C244.983196,13.173584 241.789945,16.5270554 237.344198,16.5270554 L237.344198,16.5270554 Z M187.793163,16.0090332 C187.450382,16.1107119 186.18325,16.5270554 184.467037,16.5270554 C180.027837,16.5270554 176.769112,13.3619206 176.769112,9.04481245 C176.769112,4.38723465 180.366381,1.5583329 184.467037,1.5583329 C186.096207,1.5583329 187.339845,1.94424979 187.793163,2.07288875 L187.793163,5.95324072 C187.636408,5.86619759 186.443994,5.1860287 184.728551,5.1860287 C182.298276,5.1860287 180.730729,6.89646473 180.730729,9.04481245 C180.730729,11.2586351 182.366062,12.900515 184.728551,12.900515 C186.473265,12.900515 187.646422,12.2053254 187.793163,12.1286812 L187.793163,16.0090332 L187.793163,16.0090332 Z M225.868755,16.0090332 C225.523279,16.1107119 224.254991,16.5270554 222.544555,16.5270554 C218.098808,16.5270554 214.840082,13.3619206 214.840082,9.04481245 C214.840082,4.38723465 218.441588,1.5583329 222.544555,1.5583329 C224.164867,1.5583329 225.410431,1.94424979 225.868755,2.07288875 L225.868755,5.95324072 C225.708534,5.86619759 224.51458,5.1860287 222.799522,5.1860287 C220.371173,5.1860287 218.805167,6.89646473 218.805167,9.04481245 C218.805167,11.2586351 220.441269,12.900515 222.799522,12.900515 C224.543851,12.900515 225.719703,12.2053254 225.868755,12.1286812 L225.868755,16.0090332 L225.868755,16.0090332 Z M196.455495,1.81561083 L192.807386,1.81561083 L192.807386,16.2709329 L196.455495,16.2709329 L196.455495,1.81561083 Z" id="logo-cisco" transform="translate(210.874998, 23.481840) scale(-1, 1) rotate(-180.000000) translate(-210.874998, -23.481840) "></path>
        </g>
    </g>
</svg>
