<?xml version="1.0" encoding="UTF-8"?>
<svg viewBox="0 0 179 26" version="1.1" xmlns="http://www.w3.org/2000/svg" xmlns:xlink="http://www.w3.org/1999/xlink">
    <!-- Generator: Sketch 45.2 (43514) - http://www.bohemiancoding.com/sketch -->
    <title>logo-jablotron</title>
    <desc>Created with Sketch.</desc>
    <defs></defs>
    <g id="Symbols" stroke="none" stroke-width="1" fill="none" fill-rule="evenodd">
        <g id="Partners/Big" transform="translate(-585.000000, -10.000000)" fill-rule="nonzero">
            <g id="logo-jablotron" transform="translate(585.000000, 10.000000)">
                <path d="M173.806077,3.14991152 L173.806077,17.0224671 L164.960435,3.14991152 L158.034944,3.14991152 L158.034944,25.4366143 L163.29918,25.4366143 L163.29918,10.7873682 L172.446868,25.4366143 L178.919289,25.4366143 L178.919289,3.14991152 L173.806077,3.14991152 Z M137.495795,14.2824755 C137.507712,10.8326561 140.309798,8.04344597 143.759636,8.04741817 C147.209473,8.05139037 150.005129,10.8470458 150.009101,14.2968836 C150.013073,17.7467213 147.223863,20.5488073 143.774044,20.5607238 C142.13179,20.5837719 140.547659,19.9534107 139.370224,18.808345 C138.192789,17.6632794 137.518524,16.0973316 137.495795,14.4550734 C137.495795,14.4550734 137.495795,14.3471997 137.495795,14.2824755 L137.495795,14.2824755 Z M132.145261,14.2824755 C132.145261,20.6810442 137.332326,25.868109 143.730894,25.868109 C150.129463,25.868109 155.316528,20.6810442 155.316528,14.2824755 C155.316528,7.88390684 150.129463,2.69684206 143.730894,2.69684206 C137.332326,2.69684206 132.145261,7.88390684 132.145261,14.2824755 L132.145261,14.2824755 L132.145261,14.2824755 Z M122.220882,7.70218091 C122.941951,7.67892612 123.64269,7.94325606 124.168758,8.43695019 C124.694825,8.93064433 125.00307,9.61320693 125.025598,10.3342988 L125.025598,10.3342988 C125.133471,11.5856335 124.270482,12.9448419 121.659939,12.9448419 L118.855223,12.9448419 L118.855223,7.70218091 L122.220882,7.70218091 Z M125.284495,25.4366143 L131.605892,25.4366143 L126.622128,16.6556965 C129.101873,15.4591269 130.665934,12.9364482 130.635029,10.1832756 C130.540124,8.21406094 129.665609,6.36352639 128.204439,5.03997293 C126.743268,3.71641946 124.815526,3.02862235 122.846549,3.12833678 L113.37524,3.12833678 L113.37524,25.4366143 L118.855223,25.4366143 L118.855223,17.6912839 L121.357893,17.6912839 L125.284495,25.4366143 Z M93.8285288,3.14991152 L93.8285288,7.70218091 L99.7831561,7.70218091 L99.7831561,25.4366143 L105.349438,25.4366143 L105.349438,7.70218091 L111.649261,7.70218091 L111.649261,3.14991152 L93.8285288,3.14991152 Z M81.5956532,2.69684206 L81.9839985,2.69684206 C85.0281296,2.66809734 87.9589857,3.84987585 90.1317428,5.98217198 C92.3045,8.11446812 93.5411561,11.0225945 93.569632,14.0667282 C93.569632,14.0667282 93.569632,14.2177513 93.569632,14.2824755 C93.569632,20.6810442 88.3825672,25.868109 81.9839985,25.868109 C75.5854298,25.868109 70.398365,20.6810442 70.398365,14.2824755 C70.3660667,13.7004053 70.3660667,13.1169921 70.398365,12.5349219 L75.6194512,14.1314524 L75.6194512,14.2824755 C75.593544,17.6543147 78.2443408,20.4401638 81.6133075,20.5817057 C84.9822741,20.7232475 87.8574032,18.1695615 88.1144131,14.8074318 C88.371423,11.4453021 85.9178528,8.48427642 82.5665164,8.1121009 L81.5956532,2.69684206 Z M62.0057925,20.8843449 L62.0057925,3.14991152 L56.4179358,3.14991152 L56.4179358,25.4366143 L70.2904913,25.4366143 L70.2904913,20.8843449 L62.0057925,20.8843449 Z M45.3069465,7.70218091 C46.9682012,7.70218091 47.8311907,8.65146931 47.8311907,9.85965456 C47.8311907,11.0678398 46.7740286,12.0171282 45.1343486,12.0171282 L41.9197129,12.0171282 L41.9197129,7.70218091 L45.3069465,7.70218091 Z M45.3069465,16.5478229 C46.903477,16.5478229 48.133237,17.4971113 48.133237,18.7052965 C48.133237,19.9134817 46.9466265,20.8627701 45.3069465,20.8627701 L41.8549887,20.8627701 L41.8549887,16.5478229 L45.3069465,16.5478229 Z M36.4613046,25.4366143 L45.3069465,25.4366143 C50.0102391,25.4366143 53.785818,22.7397722 53.785818,19.2662396 C53.8033111,16.6967774 51.9918165,14.4776965 49.4708707,13.9804292 C51.842686,13.3154999 53.4317258,11.0890487 53.289599,8.62989458 C53.289599,5.22108622 50.5280328,3.08518731 45.3069465,3.08518731 L36.4397299,3.08518731 L36.4613046,25.4366143 Z M23.1712669,9.06138931 L25.8896837,16.8067197 L20.4959996,16.8067197 L23.1712669,9.06138931 Z M26.2996037,3.12833678 L20.1508038,3.12833678 L11.7798061,25.4366143 L17.4971113,25.4366143 L18.8994691,21.3589891 L27.3999153,21.3589891 L28.8238479,25.4366143 L35.0589467,25.4366143 L26.2996037,3.12833678 Z M0,25.4366143 C1.21873078,25.648803 2.45234029,25.7642285 3.68927993,25.7818101 C9.29871141,25.7818101 11.3267366,22.6534733 11.3267366,17.6912839 L11.3267366,3.14991152 L5.88990305,3.14991152 L5.88990305,16.3967997 C5.88990305,20.0213554 4.40124623,20.9274944 2.63211785,20.9274944 C1.84690551,20.9292105 1.06442244,20.8350228 0.30204631,20.6470228 L0,25.4366143 Z" id="Shape" fill="#1D1D1B"></path>
                <path d="M82.1350216,14.4119239 L79.1361333,0 C73.8975061,1.0016184 69.6446816,4.82251544 68.0898682,9.92437877 L82.1350216,14.4119239 Z" id="Shape" fill="#FBBA00"></path>
            </g>
        </g>
    </g>
</svg>
