<?xml version="1.0" encoding="UTF-8"?>
<svg viewBox="0 0 170 23" version="1.1" xmlns="http://www.w3.org/2000/svg" xmlns:xlink="http://www.w3.org/1999/xlink">
    <!-- Generator: Sketch 45.2 (43514) - http://www.bohemiancoding.com/sketch -->
    <title>logo-viasound</title>
    <desc>Created with Sketch.</desc>
    <defs></defs>
    <g id="Symbols" stroke="none" stroke-width="1" fill="none" fill-rule="evenodd">
        <g id="Partners/Big" transform="translate(-335.000000, -12.000000)">
            <g id="logo-viasound" transform="translate(335.000000, 12.000000)">
                <path d="M21.7280862,0.683328982 L13.6231253,22.1241906 L8.00202872,22.1241906 L4.43864228e-05,0.683328982 L5.93450914,0.683328982 L10.4139869,12.7959399 C10.6860757,13.5305352 10.8201227,14.250483 10.8769373,14.9122846 L10.9692611,14.9122846 C11.0518198,14.2318407 11.2022898,13.4976893 11.4836997,12.7391253 L15.9578512,0.683328982 L21.7280862,0.683328982 Z" id="Fill-1" fill="#94C01F"></path>
                <polygon id="Fill-3" fill="#94C01F" points="23.9367102 22.1241906 29.7091645 22.1241906 29.7091645 0.683328982 23.9367102 0.683328982"></polygon>
                <path d="M36.8450366,1.51211227 C36.199658,1.71318277 35.6301802,1.93555875 35.1383786,2.18012794 L35.1383786,6.53621149 C37.5485614,5.09675979 40.1078825,4.37681201 42.8216684,4.37681201 C44.2939661,4.37681201 45.4062898,4.70749086 46.1555326,5.3684047 C46.9074386,6.03198172 47.2838355,7.01691645 47.2838355,8.32365274 L47.2838355,8.49454047 L40.6680392,9.32101567 C38.0408068,9.65036292 36.0731567,10.3996057 34.7686397,11.5683003 C33.4743316,12.7272298 32.8262898,14.3100496 32.8262898,16.3154282 C32.8262898,17.2910418 32.989188,18.1619034 33.3132089,18.9280131 C33.6354543,19.6896841 34.1183786,20.3514856 34.7602063,20.9120862 C35.4055849,21.4731305 36.1583786,21.89347 37.016812,22.1739922 C37.8814595,22.4562898 38.8561854,22.5974386 39.9387702,22.5974386 C41.4408068,22.5974386 42.7590836,22.3022689 43.8931567,21.7105979 C45.0285614,21.1189269 45.9855326,20.2272037 46.7645144,19.0358721 L46.8270992,18.9399974 L47.2478825,18.9399974 L47.2478825,22.0727911 L53.3155065,22.0727911 L53.3155065,9.27929243 C53.3155065,6.32004961 52.5178825,4.10561097 50.9235222,2.63730809 C49.3291619,1.16944909 46.9243055,0.43529765 43.7102846,0.43529765 C43.0866554,0.43529765 42.3977781,0.476577023 41.6458721,0.560023499 C40.8957415,0.64302611 40.0830261,0.768639687 39.2090574,0.935088773 C38.3319817,1.10286945 37.543235,1.29550653 36.8450366,1.51211227 M39.7257154,13.3708329 C40.3759765,12.8319817 41.3413812,12.4857676 42.6205979,12.3313029 L47.2838355,11.7778042 L47.2838355,13.5408329 C47.2838355,14.2381436 47.1670992,14.880859 46.9327389,15.4672037 C46.6979347,16.0535483 46.3459504,16.5826345 45.8758982,17.0522428 C45.4027389,17.5276214 44.8652193,17.8840444 44.2624517,18.1210679 C43.6601279,18.3585352 42.9943316,18.4766031 42.2650627,18.4766031 C41.7368642,18.4766031 41.2583786,18.411799 40.8331567,18.2826345 C40.4021645,18.1512507 40.0248799,17.9537311 39.7030783,17.6900757 C39.3795013,17.4250888 39.135376,17.1157154 38.9720339,16.7637311 C38.8095796,16.4148538 38.7279086,16.0255849 38.7279086,15.5985875 C38.7279086,14.6642533 39.0603629,13.9221123 39.7257154,13.3708329" id="Fill-5" fill="#94C01F"></path>
                <path d="M58.3954439,17.6827963 C60.1851044,19.0197154 62.288577,19.6859556 64.7107441,19.6859556 C67.807141,19.6859556 69.3495692,18.7130052 69.3495692,16.7662167 C69.3495692,16.2038407 69.1795692,15.6987232 68.8404569,15.2446501 C68.4955744,14.7914648 68.0383943,14.3990888 67.4622585,14.0590888 C66.8807963,13.7235274 65.7391775,13.1802376 64.0320757,12.433658 C61.9339295,11.5121958 60.467846,10.5769739 59.6347128,9.62222193 C58.8015796,8.67279634 58.3799086,7.5578094 58.3799086,6.2772611 C58.3799086,4.42989817 59.1770888,2.97491123 60.7612402,1.91629504 C62.3502742,0.853240209 64.3813969,0.324154047 66.8497258,0.324154047 C69.1902219,0.324154047 70.9594648,0.584258486 72.1525718,1.11334465 L72.1525718,4.5151201 C70.7175587,3.60342298 68.9230157,3.14491123 66.7729373,3.14491123 C65.3996214,3.14491123 64.2890731,3.40013316 63.4457311,3.91057702 C62.602389,4.41569452 62.1802742,5.11034204 62.1802742,5.99851436 C62.1802742,6.80190862 62.4892037,7.45838381 63.1061749,7.97814883 C63.7231462,8.4934752 65.0294386,9.18767885 67.0143995,10.0523264 C69.3340339,11.0492454 70.9386031,12.051047 71.8232245,13.0528486 C72.7082898,14.0497676 73.1503786,15.202483 73.1503786,16.5016736 C73.1503786,18.4435796 72.3838251,19.9225352 70.8564883,20.9478616 C69.3291514,21.9727441 67.21547,22.483188 64.5154439,22.483188 C63.5225196,22.483188 62.4168538,22.3744413 61.1980026,22.1525091 C59.9844778,21.930577 59.0483681,21.6327441 58.3954439,21.2643368 L58.3954439,17.6827963 Z" id="Fill-6" fill="#1D1D1B"></path>
                <path d="M120.576517,13.2370078 C120.576517,19.4027258 117.511634,22.4831436 111.371217,22.4831436 C105.487796,22.4831436 102.545864,19.5017076 102.545864,13.543718 L102.545864,0.683195822 L106.161138,0.683195822 L106.161138,13.4589399 C106.161138,17.5269556 107.987196,19.5634047 111.643305,19.5634047 C115.192,19.5634047 116.961243,17.5979739 116.961243,13.6666684 L116.961243,0.683195822 L120.576517,0.683195822 L120.576517,13.2370078 Z" id="Fill-7" fill="#1D1D1B"></path>
                <path d="M145.035433,22.1240574 L140.998488,22.1240574 L129.833084,6.31538903 C129.421621,5.73437076 129.118906,5.23324804 128.928044,4.80802611 L128.841047,4.80802611 C128.928044,5.36063708 128.974206,6.40460574 128.974206,7.93593734 L128.974206,22.1240574 L125.461909,22.1240574 L125.461909,0.683195822 L129.74076,0.683195822 L140.576817,16.185154 C141.08593,16.9219687 141.430368,17.437295 141.600368,17.7209243 L141.677157,17.7209243 C141.564415,17.0591227 141.512483,16.0337963 141.512483,14.6498277 L141.512483,0.683195822 L145.035433,0.683195822 L145.035433,22.1240574 Z" id="Fill-8" fill="#1D1D1B"></path>
                <path d="M153.823413,3.53249347 L153.823413,19.2705875 L157.00148,19.2705875 C159.752995,19.2705875 161.913726,18.5666188 163.486781,17.1489164 C165.060279,15.731658 165.842368,13.7520235 165.842368,11.2006919 C165.842368,8.70129243 165.096676,6.79711488 163.599966,5.49304178 C162.103256,4.18896867 159.933648,3.53249347 157.089366,3.53249347 L153.823413,3.53249347 Z M150.202812,22.1241906 L150.202812,0.683328982 L157.284666,0.683328982 C165.52323,0.683328982 169.643178,4.16544386 169.643178,11.1341123 C169.643178,14.4843995 168.470488,17.1533551 166.125554,19.1427546 C163.780175,21.132154 160.771219,22.1241906 157.104901,22.1241906 L150.202812,22.1241906 Z" id="Fill-9" fill="#1D1D1B"></path>
                <path d="M87.2780444,3.11353003 C82.754624,3.11353003 79.0874178,6.78029243 79.0874178,11.3041567 C79.0874178,15.8280209 82.754624,19.4947833 87.2780444,19.4947833 C91.8014648,19.4947833 95.468671,15.8280209 95.468671,11.3041567 C95.468671,6.78029243 91.8014648,3.11353003 87.2780444,3.11353003 M87.2780444,-0.000177545692 C93.5209948,-0.000177545692 98.5823786,5.06120627 98.5823786,11.3041567 C98.5823786,17.547107 93.5209948,22.6084909 87.2780444,22.6084909 C81.035094,22.6084909 75.9737102,17.547107 75.9737102,11.3041567 C75.9737102,5.06120627 81.035094,-0.000177545692 87.2780444,-0.000177545692" id="Fill-10" fill="#1D1D1B"></path>
                <polygon id="Fill-11" fill="#94C01F" points="84.1163551 5.66943342 92.8560418 11.3042898 84.1163551 16.9391462"></polygon>
            </g>
        </g>
    </g>
</svg>
